<?xml version="1.0" standalone="no"?><!DOCTYPE svg PUBLIC "-//W3C//DTD SVG 1.1//EN" "http://www.w3.org/Graphics/SVG/1.1/DTD/svg11.dtd"><svg t="1662011629266" class="icon" viewBox="0 0 1426 1024" version="1.1" xmlns="http://www.w3.org/2000/svg" p-id="22902" xmlns:xlink="http://www.w3.org/1999/xlink" width="278.515625" height="200"><path d="M241.01111082 62h960.00000028c65.99999971 0 119.99999971 54 119.99999972 119.99999971v660.00000058c0 65.99999971-54 119.99999971-119.99999972 119.99999971h-960.00000028c-65.99999971 0-119.99999971-54-119.99999972-119.99999971V181.99999971c0-65.99999971 54-119.99999971 119.99999972-119.99999971z" fill="#2F77F1" p-id="22903"></path><path d="M331.01111082 271.99999971m-90 0a90 90 0 1 0 180 0 90 90 0 1 0-180 0Z" fill="#AFFCFE" p-id="22904"></path><path d="M1321.01111082 748.99999971v-74.99999971L1052.5111111 446.00000029c-11.99999971-9-29.99999971-9-38.99999971 1.49999942L736.01111082 723.5 503.5111111 566c-7.49999971-7.49999971-18-10.50000029-28.50000028-7.49999971L131.51111139 737c-4.5 1.50000029-7.49999971 2.99999971-10.50000029 4.5v49.5c6.00000029 4.5 15.00000029 7.49999971 24.00000029 4.5l325.49999943-173.99999971 243 166.5c6.00000029 6.00000029 13.5 9 21.00000057 9s15.00000029-2.99999971 20.99999971-9l279-279 277.49999972 235.49999942c2.99999971 2.99999971 6.00000029 4.5 9 4.5z" fill="#AFFCFE" p-id="22905"></path></svg>